<svg xmlns="http://www.w3.org/2000/svg" width="192" height="192" viewBox="0 0 192 192">
  <path d="m163.4 39.45h-11.78v89.49c0 13.12-10.79 23.68-23.18 23.68h-88.75v10.15c0 13.16 10.01 23.76 23.54 23.76h100.2c13.05 0 23.31-11.18 23.31-23.64v-99.8c0-12.46-10.26-23.64-23.31-23.64z" fill="#1C1A1A"/>
  <path d="m128.8 5.81h-100.9c-12.62 0-22.25 11.5-22.25 23.31v100.4c0 12.22 10.04 23.13 23.05 23.13h11.02v-91.76c0-11.65 8.2-21.23 20.18-21.23h50.4c5.05 0 7.58 2.23 7.58 9.32v7.17c0 6.79-2.28 10.11-8.61 10.11h-27.42c-7.27 0-9.31 1.68-9.31 9.86v3.32c0 7.46 2.07 9.77 8.33 9.77h20.21c6.32 0 7.57 3.2 7.57 9.44v7.02c0 5.82-2.18 8.13-8.5 8.13h-18.24c-7.14 0-9.3 2.14-9.3 11.54v26.88h56.11c12.89 0 22.93-11.33 22.93-23.38v-99.23c0-12.05-9.93-23.77-22.82-23.77z" fill="#EBE7DE"/>
</svg>
